solid Composite Mesh
facet normal -1.0000 0.0000 0.0000
outer loop
	vertex -6.2500 -6.2500 8.2500
	vertex -6.2500 6.2500 8.2500
	vertex -6.2500 -6.2500 -8.2500
endloop
endfacet
facet normal -1.0000 0.0000 0.0000
outer loop
	vertex -6.2500 6.2500 8.2500
	vertex -6.2500 6.2500 -8.2500
	vertex -6.2500 -6.2500 -8.2500
endloop
endfacet
facet normal 0.0000 -1.0000 0.0000
outer loop
	vertex 6.2500 -6.2500 8.2500
	vertex -6.2500 -6.2500 8.2500
	vertex 6.2500 -6.2500 -8.2500
endloop
endfacet
facet normal 0.0000 -1.0000 0.0000
outer loop
	vertex -6.2500 -6.2500 8.2500
	vertex -6.2500 -6.2500 -8.2500
	vertex 6.2500 -6.2500 -8.2500
endloop
endfacet
facet normal 0.0000 1.0000 0.0000
outer loop
	vertex -6.2500 6.2500 8.2500
	vertex 6.2500 6.2500 8.2500
	vertex -6.2500 6.2500 -8.2500
endloop
endfacet
facet normal 0.0000 1.0000 0.0000
outer loop
	vertex 6.2500 6.2500 8.2500
	vertex 6.2500 6.2500 -8.2500
	vertex -6.2500 6.2500 -8.2500
endloop
endfacet
facet normal 1.0000 0.0000 0.0000
outer loop
	vertex 6.2500 6.2500 8.2500
	vertex 6.2500 -6.2500 8.2500
	vertex 6.2500 6.2500 -8.2500
endloop
endfacet
facet normal 1.0000 0.0000 0.0000
outer loop
	vertex 6.2500 -6.2500 8.2500
	vertex 6.2500 -6.2500 -8.2500
	vertex 6.2500 6.2500 -8.2500
endloop
endfacet
facet normal -0.4706 0.0000 0.8824
outer loop
	vertex -6.2500 -6.2500 8.2500
	vertex 0.0000 0.0000 11.5833
	vertex -6.2500 6.2500 8.2500
endloop
endfacet
facet normal 0.0000 0.4706 0.8824
outer loop
	vertex -6.2500 6.2500 8.2500
	vertex 0.0000 0.0000 11.5833
	vertex 6.2500 6.2500 8.2500
endloop
endfacet
facet normal 0.4706 0.0000 0.8824
outer loop
	vertex 6.2500 6.2500 8.2500
	vertex 0.0000 0.0000 11.5833
	vertex 6.2500 -6.2500 8.2500
endloop
endfacet
facet normal 0.0000 -0.4706 0.8824
outer loop
	vertex 6.2500 -6.2500 8.2500
	vertex 0.0000 0.0000 11.5833
	vertex -6.2500 -6.2500 8.2500
endloop
endfacet
facet normal -0.4706 0.0000 -0.8824
outer loop
	vertex -6.2500 6.2500 -8.2500
	vertex 0.0000 0.0000 -11.5833
	vertex -6.2500 -6.2500 -8.2500
endloop
endfacet
facet normal 0.0000 0.4706 -0.8824
outer loop
	vertex 6.2500 6.2500 -8.2500
	vertex 0.0000 0.0000 -11.5833
	vertex -6.2500 6.2500 -8.2500
endloop
endfacet
facet normal 0.4706 0.0000 -0.8824
outer loop
	vertex 6.2500 -6.2500 -8.2500
	vertex 0.0000 0.0000 -11.5833
	vertex 6.2500 6.2500 -8.2500
endloop
endfacet
facet normal 0.0000 -0.4706 -0.8824
outer loop
	vertex -6.2500 -6.2500 -8.2500
	vertex 0.0000 0.0000 -11.5833
	vertex 6.2500 -6.2500 -8.2500
endloop
endfacet
endsolid Composite Mesh
